<mxfile host="65bd71144e" agent="Mozilla/5.0 (Windows NT 10.0; Win64; x64) AppleWebKit/537.36 (KHTML, like Gecko) Code/1.102.1 Chrome/134.0.6998.205 Electron/35.6.0 Safari/537.36" version="28.0.6">
    <diagram id="KXJ9AOMFWMwzFx6IXGAJ" name="ページ1">
        <mxGraphModel dx="2123" dy="1033" grid="1" gridSize="10" guides="1" tooltips="1" connect="1" arrows="1" fold="1" page="1" pageScale="1" pageWidth="827" pageHeight="1169" math="0" shadow="0">
            <root>
                <mxCell id="0"/>
                <mxCell id="1" parent="0"/>
                <mxCell id="43" value="" style="group" parent="1" vertex="1" connectable="0">
                    <mxGeometry x="30" y="270" width="100" height="130" as="geometry"/>
                </mxCell>
                <mxCell id="5" value="" style="group" parent="43" vertex="1" connectable="0">
                    <mxGeometry width="100" height="100" as="geometry"/>
                </mxCell>
                <mxCell id="2" value="" style="rounded=0;whiteSpace=wrap;html=1;" parent="5" vertex="1">
                    <mxGeometry width="100" height="100" as="geometry"/>
                </mxCell>
                <mxCell id="3" value="&lt;font style=&quot;font-size: 16px; color: rgb(0, 0, 255);&quot;&gt;トップページ&lt;/font&gt;" style="rounded=0;whiteSpace=wrap;html=1;" parent="5" vertex="1">
                    <mxGeometry x="10" y="10" width="80" height="40" as="geometry"/>
                </mxCell>
                <mxCell id="4" value="html" style="text;html=1;align=center;verticalAlign=middle;resizable=0;points=[];autosize=1;strokeColor=none;fillColor=none;" parent="5" vertex="1">
                    <mxGeometry x="25" y="60" width="50" height="30" as="geometry"/>
                </mxCell>
                <mxCell id="18" value="index.html" style="text;html=1;align=center;verticalAlign=middle;resizable=0;points=[];autosize=1;strokeColor=none;fillColor=none;" parent="43" vertex="1">
                    <mxGeometry x="10" y="100" width="80" height="30" as="geometry"/>
                </mxCell>
                <mxCell id="56" value="" style="group" parent="1" vertex="1" connectable="0">
                    <mxGeometry x="210" y="270" width="115" height="130" as="geometry"/>
                </mxCell>
                <mxCell id="57" value="" style="group" parent="56" vertex="1" connectable="0">
                    <mxGeometry width="100" height="100" as="geometry"/>
                </mxCell>
                <mxCell id="58" value="" style="rounded=0;whiteSpace=wrap;html=1;" parent="57" vertex="1">
                    <mxGeometry width="100" height="100" as="geometry"/>
                </mxCell>
                <mxCell id="59" value="&lt;font style=&quot;font-size: 16px; color: rgb(0, 0, 255);&quot;&gt;商品詳細&lt;/font&gt;" style="rounded=0;whiteSpace=wrap;html=1;" parent="57" vertex="1">
                    <mxGeometry x="10" y="10" width="80" height="40" as="geometry"/>
                </mxCell>
                <mxCell id="60" value="html" style="text;html=1;align=center;verticalAlign=middle;resizable=0;points=[];autosize=1;strokeColor=none;fillColor=none;" parent="57" vertex="1">
                    <mxGeometry x="25" y="60" width="50" height="30" as="geometry"/>
                </mxCell>
                <mxCell id="61" value="products_detail.html" style="text;html=1;align=center;verticalAlign=middle;resizable=0;points=[];autosize=1;strokeColor=none;fillColor=none;" parent="56" vertex="1">
                    <mxGeometry x="-15" y="100" width="130" height="30" as="geometry"/>
                </mxCell>
                <mxCell id="62" value="" style="group" parent="1" vertex="1" connectable="0">
                    <mxGeometry x="210" y="400" width="100" height="130" as="geometry"/>
                </mxCell>
                <mxCell id="63" value="" style="group" parent="62" vertex="1" connectable="0">
                    <mxGeometry width="100" height="100" as="geometry"/>
                </mxCell>
                <mxCell id="64" value="" style="rounded=0;whiteSpace=wrap;html=1;" parent="63" vertex="1">
                    <mxGeometry width="100" height="100" as="geometry"/>
                </mxCell>
                <mxCell id="65" value="&lt;font style=&quot;font-size: 16px; color: rgb(0, 0, 255);&quot;&gt;カート&lt;/font&gt;" style="rounded=0;whiteSpace=wrap;html=1;" parent="63" vertex="1">
                    <mxGeometry x="10" y="10" width="80" height="40" as="geometry"/>
                </mxCell>
                <mxCell id="66" value="html" style="text;html=1;align=center;verticalAlign=middle;resizable=0;points=[];autosize=1;strokeColor=none;fillColor=none;" parent="63" vertex="1">
                    <mxGeometry x="25" y="60" width="50" height="30" as="geometry"/>
                </mxCell>
                <mxCell id="67" value="cart.html" style="text;html=1;align=center;verticalAlign=middle;resizable=0;points=[];autosize=1;strokeColor=none;fillColor=none;" parent="62" vertex="1">
                    <mxGeometry x="15" y="100" width="70" height="30" as="geometry"/>
                </mxCell>
                <mxCell id="68" value="" style="group" parent="1" vertex="1" connectable="0">
                    <mxGeometry x="550" y="400" width="100" height="130" as="geometry"/>
                </mxCell>
                <mxCell id="69" value="" style="group" parent="68" vertex="1" connectable="0">
                    <mxGeometry width="100" height="100" as="geometry"/>
                </mxCell>
                <mxCell id="70" value="" style="rounded=0;whiteSpace=wrap;html=1;" parent="69" vertex="1">
                    <mxGeometry width="100" height="100" as="geometry"/>
                </mxCell>
                <mxCell id="71" value="&lt;font style=&quot;font-size: 16px; color: rgb(0, 0, 255);&quot;&gt;注文&lt;/font&gt;" style="rounded=0;whiteSpace=wrap;html=1;" parent="69" vertex="1">
                    <mxGeometry x="10" y="10" width="80" height="40" as="geometry"/>
                </mxCell>
                <mxCell id="72" value="html" style="text;html=1;align=center;verticalAlign=middle;resizable=0;points=[];autosize=1;strokeColor=none;fillColor=none;" parent="69" vertex="1">
                    <mxGeometry x="25" y="60" width="50" height="30" as="geometry"/>
                </mxCell>
                <mxCell id="73" value="checkout.html" style="text;html=1;align=center;verticalAlign=middle;resizable=0;points=[];autosize=1;strokeColor=none;fillColor=none;" parent="68" vertex="1">
                    <mxGeometry y="100" width="100" height="30" as="geometry"/>
                </mxCell>
                <mxCell id="77" style="edgeStyle=none;html=1;entryX=0;entryY=0.5;entryDx=0;entryDy=0;endArrow=classic;endFill=1;rounded=0;curved=0;" parent="1" target="70" edge="1">
                    <mxGeometry relative="1" as="geometry">
                        <mxPoint x="520" y="320" as="sourcePoint"/>
                        <Array as="points">
                            <mxPoint x="520" y="450"/>
                        </Array>
                    </mxGeometry>
                </mxCell>
                <mxCell id="78" value="" style="group" parent="1" vertex="1" connectable="0">
                    <mxGeometry x="550" y="270" width="100" height="130" as="geometry"/>
                </mxCell>
                <mxCell id="79" value="" style="group" parent="78" vertex="1" connectable="0">
                    <mxGeometry width="100" height="100" as="geometry"/>
                </mxCell>
                <mxCell id="80" value="" style="rounded=0;whiteSpace=wrap;html=1;" parent="79" vertex="1">
                    <mxGeometry width="100" height="100" as="geometry"/>
                </mxCell>
                <mxCell id="81" value="&lt;font style=&quot;font-size: 16px; color: rgb(0, 0, 255);&quot;&gt;マイ&lt;br&gt;ページ&lt;/font&gt;" style="rounded=0;whiteSpace=wrap;html=1;" parent="79" vertex="1">
                    <mxGeometry x="10" y="10" width="80" height="40" as="geometry"/>
                </mxCell>
                <mxCell id="82" value="html" style="text;html=1;align=center;verticalAlign=middle;resizable=0;points=[];autosize=1;strokeColor=none;fillColor=none;" parent="79" vertex="1">
                    <mxGeometry x="25" y="60" width="50" height="30" as="geometry"/>
                </mxCell>
                <mxCell id="83" value="mypage.html" style="text;html=1;align=center;verticalAlign=middle;resizable=0;points=[];autosize=1;strokeColor=none;fillColor=none;" parent="78" vertex="1">
                    <mxGeometry x="5" y="100" width="90" height="30" as="geometry"/>
                </mxCell>
                <mxCell id="85" value="" style="group" parent="1" vertex="1" connectable="0">
                    <mxGeometry x="29" y="410" width="100" height="130" as="geometry"/>
                </mxCell>
                <mxCell id="86" value="" style="group" parent="85" vertex="1" connectable="0">
                    <mxGeometry width="100" height="100" as="geometry"/>
                </mxCell>
                <mxCell id="87" value="" style="rounded=0;whiteSpace=wrap;html=1;" parent="86" vertex="1">
                    <mxGeometry width="100" height="100" as="geometry"/>
                </mxCell>
                <mxCell id="88" value="&lt;font style=&quot;font-size: 16px; color: rgb(0, 0, 255);&quot;&gt;新規登録&lt;/font&gt;" style="rounded=0;whiteSpace=wrap;html=1;" parent="86" vertex="1">
                    <mxGeometry x="10" y="10" width="80" height="40" as="geometry"/>
                </mxCell>
                <mxCell id="89" value="html" style="text;html=1;align=center;verticalAlign=middle;resizable=0;points=[];autosize=1;strokeColor=none;fillColor=none;" parent="86" vertex="1">
                    <mxGeometry x="25" y="60" width="50" height="30" as="geometry"/>
                </mxCell>
                <mxCell id="90" value="register&lt;span style=&quot;background-color: transparent;&quot;&gt;.html&lt;/span&gt;" style="text;html=1;align=center;verticalAlign=middle;resizable=0;points=[];autosize=1;strokeColor=none;fillColor=none;" parent="85" vertex="1">
                    <mxGeometry x="5" y="100" width="90" height="30" as="geometry"/>
                </mxCell>
                <mxCell id="91" value="" style="group" parent="1" vertex="1" connectable="0">
                    <mxGeometry x="-100" y="10" width="100" height="135" as="geometry"/>
                </mxCell>
                <mxCell id="92" value="" style="group" parent="91" vertex="1" connectable="0">
                    <mxGeometry y="130" width="100" height="100" as="geometry"/>
                </mxCell>
                <mxCell id="93" value="" style="rounded=0;whiteSpace=wrap;html=1;" parent="92" vertex="1">
                    <mxGeometry width="100" height="100" as="geometry"/>
                </mxCell>
                <mxCell id="94" value="&lt;font style=&quot;font-size: 16px; color: rgb(0, 0, 255);&quot;&gt;管理者&lt;/font&gt;" style="rounded=0;whiteSpace=wrap;html=1;" parent="92" vertex="1">
                    <mxGeometry x="10" y="10" width="80" height="40" as="geometry"/>
                </mxCell>
                <mxCell id="95" value="html" style="text;html=1;align=center;verticalAlign=middle;resizable=0;points=[];autosize=1;strokeColor=none;fillColor=none;" parent="92" vertex="1">
                    <mxGeometry x="25" y="60" width="50" height="30" as="geometry"/>
                </mxCell>
                <mxCell id="97" value="" style="group" parent="1" vertex="1" connectable="0">
                    <mxGeometry x="30" y="10" width="100" height="135" as="geometry"/>
                </mxCell>
                <mxCell id="98" value="" style="group" parent="97" vertex="1" connectable="0">
                    <mxGeometry y="130" width="100" height="100" as="geometry"/>
                </mxCell>
                <mxCell id="99" value="" style="rounded=0;whiteSpace=wrap;html=1;" parent="98" vertex="1">
                    <mxGeometry width="100" height="100" as="geometry"/>
                </mxCell>
                <mxCell id="100" value="&lt;font style=&quot;font-size: 16px; color: rgb(0, 0, 255);&quot;&gt;商品編集&lt;/font&gt;" style="rounded=0;whiteSpace=wrap;html=1;" parent="98" vertex="1">
                    <mxGeometry x="10" y="10" width="80" height="40" as="geometry"/>
                </mxCell>
                <mxCell id="101" value="html" style="text;html=1;align=center;verticalAlign=middle;resizable=0;points=[];autosize=1;strokeColor=none;fillColor=none;" parent="98" vertex="1">
                    <mxGeometry x="25" y="60" width="50" height="30" as="geometry"/>
                </mxCell>
                <mxCell id="103" value="" style="group" parent="1" vertex="1" connectable="0">
                    <mxGeometry x="-240" y="10" width="100" height="130" as="geometry"/>
                </mxCell>
                <mxCell id="104" value="" style="group" parent="103" vertex="1" connectable="0">
                    <mxGeometry y="130" width="100" height="100" as="geometry"/>
                </mxCell>
                <mxCell id="105" value="" style="rounded=0;whiteSpace=wrap;html=1;" parent="104" vertex="1">
                    <mxGeometry width="100" height="100" as="geometry"/>
                </mxCell>
                <mxCell id="106" value="&lt;font style=&quot;font-size: 16px; color: rgb(0, 0, 255);&quot;&gt;管理者ログイン&lt;/font&gt;" style="rounded=0;whiteSpace=wrap;html=1;" parent="104" vertex="1">
                    <mxGeometry x="10" y="10" width="80" height="40" as="geometry"/>
                </mxCell>
                <mxCell id="107" value="html" style="text;html=1;align=center;verticalAlign=middle;resizable=0;points=[];autosize=1;strokeColor=none;fillColor=none;" parent="104" vertex="1">
                    <mxGeometry x="25" y="60" width="50" height="30" as="geometry"/>
                </mxCell>
                <mxCell id="112" style="edgeStyle=none;html=1;endArrow=classic;endFill=1;" parent="1" edge="1">
                    <mxGeometry relative="1" as="geometry">
                        <mxPoint y="190" as="sourcePoint"/>
                        <mxPoint x="30" y="190" as="targetPoint"/>
                    </mxGeometry>
                </mxCell>
                <mxCell id="116" style="edgeStyle=none;html=1;entryX=0.5;entryY=0;entryDx=0;entryDy=0;endArrow=classic;endFill=1;exitX=0.5;exitY=1;exitDx=0;exitDy=0;" parent="1" source="99" target="2" edge="1">
                    <mxGeometry relative="1" as="geometry">
                        <mxPoint x="80" y="110" as="sourcePoint"/>
                    </mxGeometry>
                </mxCell>
                <mxCell id="121" style="edgeStyle=none;html=1;exitX=1;exitY=0.5;exitDx=0;exitDy=0;rounded=0;curved=0;endArrow=classic;endFill=1;" parent="1" source="64" edge="1">
                    <mxGeometry relative="1" as="geometry">
                        <mxPoint x="350" y="320" as="targetPoint"/>
                        <Array as="points">
                            <mxPoint x="350" y="450"/>
                            <mxPoint x="350" y="320"/>
                        </Array>
                    </mxGeometry>
                </mxCell>
                <mxCell id="123" style="edgeStyle=none;html=1;exitX=1;exitY=0.5;exitDx=0;exitDy=0;rounded=0;curved=0;endArrow=classic;endFill=1;" parent="1" source="2" edge="1">
                    <mxGeometry relative="1" as="geometry">
                        <mxPoint x="350" y="320" as="targetPoint"/>
                        <Array as="points">
                            <mxPoint x="170" y="320"/>
                            <mxPoint x="170" y="240"/>
                            <mxPoint x="350" y="240"/>
                        </Array>
                    </mxGeometry>
                </mxCell>
                <mxCell id="124" value="" style="group" parent="1" vertex="1" connectable="0">
                    <mxGeometry x="390" y="270" width="100" height="130" as="geometry"/>
                </mxCell>
                <mxCell id="125" value="" style="group" parent="124" vertex="1" connectable="0">
                    <mxGeometry width="100" height="100" as="geometry"/>
                </mxCell>
                <mxCell id="132" style="edgeStyle=none;html=1;exitX=1;exitY=0.5;exitDx=0;exitDy=0;endArrow=classic;endFill=1;entryX=1;entryY=0.5;entryDx=0;entryDy=0;" parent="125" source="126" edge="1">
                    <mxGeometry relative="1" as="geometry">
                        <mxPoint x="160" y="50.35294117647061" as="targetPoint"/>
                    </mxGeometry>
                </mxCell>
                <mxCell id="126" value="" style="rounded=0;whiteSpace=wrap;html=1;" parent="125" vertex="1">
                    <mxGeometry width="100" height="100" as="geometry"/>
                </mxCell>
                <mxCell id="127" value="&lt;font style=&quot;font-size: 16px; color: rgb(0, 0, 255);&quot;&gt;ログイン&lt;/font&gt;" style="rounded=0;whiteSpace=wrap;html=1;" parent="125" vertex="1">
                    <mxGeometry x="10" y="10" width="80" height="40" as="geometry"/>
                </mxCell>
                <mxCell id="128" value="html" style="text;html=1;align=center;verticalAlign=middle;resizable=0;points=[];autosize=1;strokeColor=none;fillColor=none;" parent="125" vertex="1">
                    <mxGeometry x="25" y="60" width="50" height="30" as="geometry"/>
                </mxCell>
                <mxCell id="129" value="login.html" style="text;html=1;align=center;verticalAlign=middle;resizable=0;points=[];autosize=1;strokeColor=none;fillColor=none;" parent="124" vertex="1">
                    <mxGeometry x="15" y="100" width="70" height="30" as="geometry"/>
                </mxCell>
                <mxCell id="140" value="" style="group" parent="1" vertex="1" connectable="0">
                    <mxGeometry x="680" y="400" width="100" height="130" as="geometry"/>
                </mxCell>
                <mxCell id="141" value="" style="group" parent="140" vertex="1" connectable="0">
                    <mxGeometry width="100" height="100" as="geometry"/>
                </mxCell>
                <mxCell id="142" value="" style="rounded=0;whiteSpace=wrap;html=1;" parent="141" vertex="1">
                    <mxGeometry width="100" height="100" as="geometry"/>
                </mxCell>
                <mxCell id="143" value="&lt;font style=&quot;font-size: 16px; color: rgb(0, 0, 255);&quot;&gt;注文完了&lt;/font&gt;" style="rounded=0;whiteSpace=wrap;html=1;" parent="141" vertex="1">
                    <mxGeometry x="10" y="10" width="80" height="40" as="geometry"/>
                </mxCell>
                <mxCell id="144" value="html" style="text;html=1;align=center;verticalAlign=middle;resizable=0;points=[];autosize=1;strokeColor=none;fillColor=none;" parent="141" vertex="1">
                    <mxGeometry x="25" y="60" width="50" height="30" as="geometry"/>
                </mxCell>
                <mxCell id="145" value="checkout.html" style="text;html=1;align=center;verticalAlign=middle;resizable=0;points=[];autosize=1;strokeColor=none;fillColor=none;" parent="140" vertex="1">
                    <mxGeometry y="100" width="100" height="30" as="geometry"/>
                </mxCell>
                <mxCell id="146" style="edgeStyle=none;html=1;exitX=1;exitY=0.5;exitDx=0;exitDy=0;entryX=0;entryY=0.5;entryDx=0;entryDy=0;endArrow=classic;endFill=1;" parent="1" source="70" target="142" edge="1">
                    <mxGeometry relative="1" as="geometry"/>
                </mxCell>
                <mxCell id="108" value="index.html" style="text;html=1;align=center;verticalAlign=middle;resizable=0;points=[];autosize=1;strokeColor=none;fillColor=none;" parent="1" vertex="1">
                    <mxGeometry x="-230" y="240" width="80" height="30" as="geometry"/>
                </mxCell>
                <mxCell id="130" style="edgeStyle=none;html=1;exitX=1;exitY=0.5;exitDx=0;exitDy=0;endArrow=classic;endFill=1;entryX=0;entryY=0.5;entryDx=0;entryDy=0;" parent="1" source="58" target="126" edge="1">
                    <mxGeometry relative="1" as="geometry">
                        <mxPoint x="350" y="320.3529411764706" as="targetPoint"/>
                    </mxGeometry>
                </mxCell>
                <mxCell id="119" style="edgeStyle=none;html=1;exitX=1;exitY=0.5;exitDx=0;exitDy=0;endArrow=classic;endFill=1;entryX=0;entryY=0.5;entryDx=0;entryDy=0;" parent="1" source="2" target="58" edge="1">
                    <mxGeometry relative="1" as="geometry">
                        <mxPoint x="170" y="320.3529411764706" as="sourcePoint"/>
                    </mxGeometry>
                </mxCell>
                <mxCell id="120" style="edgeStyle=none;html=1;exitX=1;exitY=0.5;exitDx=0;exitDy=0;rounded=0;curved=0;endArrow=classic;endFill=1;entryX=0;entryY=0.5;entryDx=0;entryDy=0;" parent="1" source="2" target="64" edge="1">
                    <mxGeometry relative="1" as="geometry">
                        <mxPoint x="170" y="320" as="sourcePoint"/>
                        <Array as="points">
                            <mxPoint x="170" y="320"/>
                            <mxPoint x="170" y="450"/>
                        </Array>
                    </mxGeometry>
                </mxCell>
                <mxCell id="118" style="edgeStyle=none;html=1;endArrow=classic;endFill=1;exitX=0.487;exitY=0.008;exitDx=0;exitDy=0;entryX=0.5;entryY=0;entryDx=0;entryDy=0;exitPerimeter=0;" parent="1" source="18" target="87" edge="1">
                    <mxGeometry relative="1" as="geometry">
                        <mxPoint y="569.9999999999999" as="sourcePoint"/>
                    </mxGeometry>
                </mxCell>
                <mxCell id="110" style="edgeStyle=none;html=1;endArrow=classic;endFill=1;exitX=1;exitY=0.5;exitDx=0;exitDy=0;entryX=0;entryY=0.5;entryDx=0;entryDy=0;" parent="1" source="105" target="93" edge="1">
                    <mxGeometry relative="1" as="geometry"/>
                </mxCell>
                <mxCell id="149" style="edgeStyle=none;html=1;exitX=0;exitY=0.5;exitDx=0;exitDy=0;entryX=0.462;entryY=-0.051;entryDx=0;entryDy=0;entryPerimeter=0;rounded=0;curved=0;" parent="1" source="2" target="108" edge="1">
                    <mxGeometry relative="1" as="geometry">
                        <Array as="points">
                            <mxPoint x="-193" y="320"/>
                        </Array>
                    </mxGeometry>
                </mxCell>
            </root>
        </mxGraphModel>
    </diagram>
</mxfile>